<mxfile host="app.diagrams.net" modified="2020-10-29T07:26:43.126Z" agent="5.0 (Windows NT 10.0; Win64; x64) AppleWebKit/537.36 (KHTML, like Gecko) Chrome/86.0.4240.111 Safari/537.36" etag="eCJsKMLb7rqrhIMZetDa" version="13.8.6" type="github">
  <diagram id="S1DTisjpxe-AB1ak3G5N" name="Page-1">
    <mxGraphModel dx="1422" dy="861" grid="1" gridSize="10" guides="1" tooltips="1" connect="1" arrows="1" fold="1" page="1" pageScale="1" pageWidth="827" pageHeight="1169" math="0" shadow="0">
      <root>
        <mxCell id="0" />
        <mxCell id="1" parent="0" />
        <mxCell id="5vMVcopWDfaQ81VpxTlz-18" style="edgeStyle=orthogonalEdgeStyle;rounded=0;orthogonalLoop=1;jettySize=auto;html=1;entryX=0;entryY=0;entryDx=40;entryDy=14;entryPerimeter=0;" edge="1" parent="1" source="5vMVcopWDfaQ81VpxTlz-6" target="5vMVcopWDfaQ81VpxTlz-17">
          <mxGeometry relative="1" as="geometry" />
        </mxCell>
        <mxCell id="5vMVcopWDfaQ81VpxTlz-22" style="edgeStyle=orthogonalEdgeStyle;rounded=0;orthogonalLoop=1;jettySize=auto;html=1;entryX=0;entryY=0;entryDx=40;entryDy=14;entryPerimeter=0;" edge="1" parent="1" source="5vMVcopWDfaQ81VpxTlz-6" target="5vMVcopWDfaQ81VpxTlz-19">
          <mxGeometry relative="1" as="geometry" />
        </mxCell>
        <mxCell id="5vMVcopWDfaQ81VpxTlz-23" style="edgeStyle=orthogonalEdgeStyle;rounded=0;orthogonalLoop=1;jettySize=auto;html=1;entryX=0;entryY=0;entryDx=40;entryDy=14;entryPerimeter=0;" edge="1" parent="1" source="5vMVcopWDfaQ81VpxTlz-6" target="5vMVcopWDfaQ81VpxTlz-20">
          <mxGeometry relative="1" as="geometry" />
        </mxCell>
        <mxCell id="5vMVcopWDfaQ81VpxTlz-24" style="edgeStyle=orthogonalEdgeStyle;rounded=0;orthogonalLoop=1;jettySize=auto;html=1;entryX=0;entryY=0;entryDx=40;entryDy=14;entryPerimeter=0;" edge="1" parent="1" source="5vMVcopWDfaQ81VpxTlz-6" target="5vMVcopWDfaQ81VpxTlz-21">
          <mxGeometry relative="1" as="geometry" />
        </mxCell>
        <mxCell id="5vMVcopWDfaQ81VpxTlz-53" style="edgeStyle=orthogonalEdgeStyle;rounded=0;orthogonalLoop=1;jettySize=auto;html=1;" edge="1" parent="1" source="5vMVcopWDfaQ81VpxTlz-6" target="5vMVcopWDfaQ81VpxTlz-44">
          <mxGeometry relative="1" as="geometry" />
        </mxCell>
        <mxCell id="5vMVcopWDfaQ81VpxTlz-6" value="Heros" style="shape=folder;fontStyle=1;spacingTop=10;tabWidth=40;tabHeight=14;tabPosition=left;html=1;" vertex="1" parent="1">
          <mxGeometry x="530" y="150" width="70" height="50" as="geometry" />
        </mxCell>
        <mxCell id="5vMVcopWDfaQ81VpxTlz-47" style="edgeStyle=orthogonalEdgeStyle;rounded=0;orthogonalLoop=1;jettySize=auto;html=1;" edge="1" parent="1" source="5vMVcopWDfaQ81VpxTlz-17" target="5vMVcopWDfaQ81VpxTlz-46">
          <mxGeometry relative="1" as="geometry" />
        </mxCell>
        <mxCell id="5vMVcopWDfaQ81VpxTlz-50" style="edgeStyle=orthogonalEdgeStyle;rounded=0;orthogonalLoop=1;jettySize=auto;html=1;" edge="1" parent="1" source="5vMVcopWDfaQ81VpxTlz-17" target="5vMVcopWDfaQ81VpxTlz-48">
          <mxGeometry relative="1" as="geometry" />
        </mxCell>
        <mxCell id="5vMVcopWDfaQ81VpxTlz-51" style="edgeStyle=orthogonalEdgeStyle;rounded=0;orthogonalLoop=1;jettySize=auto;html=1;" edge="1" parent="1" source="5vMVcopWDfaQ81VpxTlz-17" target="5vMVcopWDfaQ81VpxTlz-49">
          <mxGeometry relative="1" as="geometry" />
        </mxCell>
        <mxCell id="5vMVcopWDfaQ81VpxTlz-17" value="elves" style="shape=folder;fontStyle=1;spacingTop=10;tabWidth=40;tabHeight=14;tabPosition=left;html=1;" vertex="1" parent="1">
          <mxGeometry x="706" y="250" width="70" height="50" as="geometry" />
        </mxCell>
        <mxCell id="5vMVcopWDfaQ81VpxTlz-67" style="edgeStyle=orthogonalEdgeStyle;rounded=0;orthogonalLoop=1;jettySize=auto;html=1;entryX=0.5;entryY=0;entryDx=0;entryDy=0;" edge="1" parent="1" source="5vMVcopWDfaQ81VpxTlz-19" target="5vMVcopWDfaQ81VpxTlz-64">
          <mxGeometry relative="1" as="geometry" />
        </mxCell>
        <mxCell id="5vMVcopWDfaQ81VpxTlz-68" style="edgeStyle=orthogonalEdgeStyle;rounded=0;orthogonalLoop=1;jettySize=auto;html=1;" edge="1" parent="1" source="5vMVcopWDfaQ81VpxTlz-19" target="5vMVcopWDfaQ81VpxTlz-65">
          <mxGeometry relative="1" as="geometry" />
        </mxCell>
        <mxCell id="5vMVcopWDfaQ81VpxTlz-69" style="edgeStyle=orthogonalEdgeStyle;rounded=0;orthogonalLoop=1;jettySize=auto;html=1;" edge="1" parent="1" source="5vMVcopWDfaQ81VpxTlz-19" target="5vMVcopWDfaQ81VpxTlz-66">
          <mxGeometry relative="1" as="geometry" />
        </mxCell>
        <mxCell id="5vMVcopWDfaQ81VpxTlz-19" value="human" style="shape=folder;fontStyle=1;spacingTop=10;tabWidth=40;tabHeight=14;tabPosition=left;html=1;" vertex="1" parent="1">
          <mxGeometry x="890" y="250" width="70" height="50" as="geometry" />
        </mxCell>
        <mxCell id="5vMVcopWDfaQ81VpxTlz-80" style="edgeStyle=orthogonalEdgeStyle;rounded=0;orthogonalLoop=1;jettySize=auto;html=1;" edge="1" parent="1" source="5vMVcopWDfaQ81VpxTlz-20" target="5vMVcopWDfaQ81VpxTlz-79">
          <mxGeometry relative="1" as="geometry" />
        </mxCell>
        <mxCell id="5vMVcopWDfaQ81VpxTlz-81" style="edgeStyle=orthogonalEdgeStyle;rounded=0;orthogonalLoop=1;jettySize=auto;html=1;" edge="1" parent="1" source="5vMVcopWDfaQ81VpxTlz-20" target="5vMVcopWDfaQ81VpxTlz-77">
          <mxGeometry relative="1" as="geometry" />
        </mxCell>
        <mxCell id="5vMVcopWDfaQ81VpxTlz-82" style="edgeStyle=orthogonalEdgeStyle;rounded=0;orthogonalLoop=1;jettySize=auto;html=1;" edge="1" parent="1" source="5vMVcopWDfaQ81VpxTlz-20" target="5vMVcopWDfaQ81VpxTlz-78">
          <mxGeometry relative="1" as="geometry" />
        </mxCell>
        <mxCell id="5vMVcopWDfaQ81VpxTlz-20" value="orcs" style="shape=folder;fontStyle=1;spacingTop=10;tabWidth=40;tabHeight=14;tabPosition=left;html=1;" vertex="1" parent="1">
          <mxGeometry x="1070" y="250" width="70" height="50" as="geometry" />
        </mxCell>
        <mxCell id="5vMVcopWDfaQ81VpxTlz-86" style="edgeStyle=orthogonalEdgeStyle;rounded=0;orthogonalLoop=1;jettySize=auto;html=1;entryX=0.5;entryY=0;entryDx=0;entryDy=0;" edge="1" parent="1" source="5vMVcopWDfaQ81VpxTlz-21" target="5vMVcopWDfaQ81VpxTlz-83">
          <mxGeometry relative="1" as="geometry" />
        </mxCell>
        <mxCell id="5vMVcopWDfaQ81VpxTlz-87" style="edgeStyle=orthogonalEdgeStyle;rounded=0;orthogonalLoop=1;jettySize=auto;html=1;" edge="1" parent="1" source="5vMVcopWDfaQ81VpxTlz-21" target="5vMVcopWDfaQ81VpxTlz-85">
          <mxGeometry relative="1" as="geometry" />
        </mxCell>
        <mxCell id="5vMVcopWDfaQ81VpxTlz-88" style="edgeStyle=orthogonalEdgeStyle;rounded=0;orthogonalLoop=1;jettySize=auto;html=1;" edge="1" parent="1" source="5vMVcopWDfaQ81VpxTlz-21" target="5vMVcopWDfaQ81VpxTlz-84">
          <mxGeometry relative="1" as="geometry" />
        </mxCell>
        <mxCell id="5vMVcopWDfaQ81VpxTlz-21" value="undead" style="shape=folder;fontStyle=1;spacingTop=10;tabWidth=40;tabHeight=14;tabPosition=left;html=1;" vertex="1" parent="1">
          <mxGeometry x="1250" y="250" width="70" height="50" as="geometry" />
        </mxCell>
        <mxCell id="5vMVcopWDfaQ81VpxTlz-40" value="«interface»&lt;br&gt;&lt;b&gt;Hero&lt;/b&gt;" style="html=1;" vertex="1" parent="1">
          <mxGeometry x="100" y="346" width="110" height="64" as="geometry" />
        </mxCell>
        <mxCell id="5vMVcopWDfaQ81VpxTlz-41" value="«interface»&lt;br&gt;&lt;b&gt;Team&lt;/b&gt;" style="html=1;" vertex="1" parent="1">
          <mxGeometry x="110" y="130" width="110" height="64" as="geometry" />
        </mxCell>
        <mxCell id="5vMVcopWDfaQ81VpxTlz-43" value="&lt;p style=&quot;margin: 0px ; margin-top: 4px ; text-align: center&quot;&gt;&lt;br&gt;&lt;b&gt;Battle&lt;/b&gt;&lt;/p&gt;" style="verticalAlign=top;align=left;overflow=fill;fontSize=12;fontFamily=Helvetica;html=1;" vertex="1" parent="1">
          <mxGeometry x="20" y="440" width="140" height="74" as="geometry" />
        </mxCell>
        <mxCell id="5vMVcopWDfaQ81VpxTlz-44" value="&lt;p style=&quot;margin: 0px ; margin-top: 4px ; text-align: center&quot;&gt;HeroImpl&amp;nbsp;&lt;/p&gt;&lt;p style=&quot;margin: 0px ; margin-top: 4px ; text-align: center&quot;&gt;implements Hero&lt;/p&gt;&lt;p style=&quot;margin: 0px ; margin-top: 4px ; text-align: center&quot;&gt;&lt;br&gt;&lt;/p&gt;&lt;p style=&quot;margin: 0px ; margin-top: 4px ; text-align: center&quot;&gt;Этот класс вкладываем&amp;nbsp;&lt;/p&gt;&lt;p style=&quot;margin: 0px ; margin-top: 4px ; text-align: center&quot;&gt;в героев разной расы.&lt;/p&gt;&lt;p style=&quot;margin: 0px ; margin-top: 4px ; text-align: center&quot;&gt;&lt;br&gt;&lt;/p&gt;&lt;p style=&quot;margin: 0px ; margin-top: 4px ; text-align: center&quot;&gt;В этом классе описываем&amp;nbsp;&lt;/p&gt;&lt;p style=&quot;margin: 0px ; margin-top: 4px ; text-align: center&quot;&gt;базовые операции с героем&amp;nbsp;&amp;nbsp;&lt;/p&gt;" style="verticalAlign=top;align=left;overflow=fill;fontSize=12;fontFamily=Helvetica;html=1;" vertex="1" parent="1">
          <mxGeometry x="480" y="240" width="170" height="160" as="geometry" />
        </mxCell>
        <mxCell id="5vMVcopWDfaQ81VpxTlz-46" value="&lt;p style=&quot;margin: 0px ; margin-top: 4px ; text-align: center&quot;&gt;MagicianImpl&amp;nbsp;&lt;/p&gt;&lt;p style=&quot;margin: 0px ; margin-top: 4px ; text-align: center&quot;&gt;implements Hero&lt;/p&gt;" style="verticalAlign=top;align=left;overflow=fill;fontSize=12;fontFamily=Helvetica;html=1;" vertex="1" parent="1">
          <mxGeometry x="671" y="452" width="140" height="50" as="geometry" />
        </mxCell>
        <mxCell id="5vMVcopWDfaQ81VpxTlz-48" value="&lt;p style=&quot;margin: 0px ; margin-top: 4px ; text-align: center&quot;&gt;ArcherImpl&amp;nbsp;&lt;/p&gt;&lt;p style=&quot;margin: 0px ; margin-top: 4px ; text-align: center&quot;&gt;implements Hero&lt;/p&gt;" style="verticalAlign=top;align=left;overflow=fill;fontSize=12;fontFamily=Helvetica;html=1;" vertex="1" parent="1">
          <mxGeometry x="586" y="530" width="140" height="50" as="geometry" />
        </mxCell>
        <mxCell id="5vMVcopWDfaQ81VpxTlz-49" value="&lt;p style=&quot;margin: 0px ; margin-top: 4px ; text-align: center&quot;&gt;WarriorImpl&amp;nbsp;&lt;/p&gt;&lt;p style=&quot;margin: 0px ; margin-top: 4px ; text-align: center&quot;&gt;implements Hero&lt;/p&gt;" style="verticalAlign=top;align=left;overflow=fill;fontSize=12;fontFamily=Helvetica;html=1;" vertex="1" parent="1">
          <mxGeometry x="756" y="340" width="140" height="50" as="geometry" />
        </mxCell>
        <mxCell id="5vMVcopWDfaQ81VpxTlz-56" style="edgeStyle=orthogonalEdgeStyle;rounded=0;orthogonalLoop=1;jettySize=auto;html=1;" edge="1" parent="1" source="5vMVcopWDfaQ81VpxTlz-52" target="5vMVcopWDfaQ81VpxTlz-43">
          <mxGeometry relative="1" as="geometry" />
        </mxCell>
        <mxCell id="5vMVcopWDfaQ81VpxTlz-57" style="edgeStyle=orthogonalEdgeStyle;rounded=0;orthogonalLoop=1;jettySize=auto;html=1;" edge="1" parent="1" source="5vMVcopWDfaQ81VpxTlz-52" target="5vMVcopWDfaQ81VpxTlz-40">
          <mxGeometry relative="1" as="geometry" />
        </mxCell>
        <mxCell id="5vMVcopWDfaQ81VpxTlz-58" style="edgeStyle=orthogonalEdgeStyle;rounded=0;orthogonalLoop=1;jettySize=auto;html=1;" edge="1" parent="1" source="5vMVcopWDfaQ81VpxTlz-52" target="5vMVcopWDfaQ81VpxTlz-41">
          <mxGeometry relative="1" as="geometry" />
        </mxCell>
        <mxCell id="5vMVcopWDfaQ81VpxTlz-59" style="edgeStyle=orthogonalEdgeStyle;rounded=0;orthogonalLoop=1;jettySize=auto;html=1;" edge="1" parent="1" source="5vMVcopWDfaQ81VpxTlz-52" target="5vMVcopWDfaQ81VpxTlz-6">
          <mxGeometry relative="1" as="geometry" />
        </mxCell>
        <mxCell id="5vMVcopWDfaQ81VpxTlz-61" style="edgeStyle=orthogonalEdgeStyle;rounded=0;orthogonalLoop=1;jettySize=auto;html=1;" edge="1" parent="1" source="5vMVcopWDfaQ81VpxTlz-52" target="5vMVcopWDfaQ81VpxTlz-60">
          <mxGeometry relative="1" as="geometry" />
        </mxCell>
        <mxCell id="5vMVcopWDfaQ81VpxTlz-52" value="src" style="shape=folder;fontStyle=1;spacingTop=10;tabWidth=40;tabHeight=14;tabPosition=left;html=1;" vertex="1" parent="1">
          <mxGeometry x="55" y="23" width="70" height="64" as="geometry" />
        </mxCell>
        <mxCell id="5vMVcopWDfaQ81VpxTlz-63" style="edgeStyle=orthogonalEdgeStyle;rounded=0;orthogonalLoop=1;jettySize=auto;html=1;" edge="1" parent="1" source="5vMVcopWDfaQ81VpxTlz-60" target="5vMVcopWDfaQ81VpxTlz-62">
          <mxGeometry relative="1" as="geometry" />
        </mxCell>
        <mxCell id="5vMVcopWDfaQ81VpxTlz-60" value="IO" style="shape=folder;fontStyle=1;spacingTop=10;tabWidth=40;tabHeight=14;tabPosition=left;html=1;" vertex="1" parent="1">
          <mxGeometry x="300" y="100" width="70" height="50" as="geometry" />
        </mxCell>
        <mxCell id="5vMVcopWDfaQ81VpxTlz-62" value="&lt;p style=&quot;margin: 0px ; margin-top: 4px ; text-align: center&quot;&gt;WiriteImpl&lt;/p&gt;" style="verticalAlign=top;align=left;overflow=fill;fontSize=12;fontFamily=Helvetica;html=1;" vertex="1" parent="1">
          <mxGeometry x="265" y="260" width="140" height="50" as="geometry" />
        </mxCell>
        <mxCell id="5vMVcopWDfaQ81VpxTlz-64" value="&lt;p style=&quot;margin: 0px ; margin-top: 4px ; text-align: center&quot;&gt;MagicianImpl&amp;nbsp;&lt;/p&gt;&lt;p style=&quot;margin: 0px ; margin-top: 4px ; text-align: center&quot;&gt;implements Hero&lt;/p&gt;" style="verticalAlign=top;align=left;overflow=fill;fontSize=12;fontFamily=Helvetica;html=1;" vertex="1" parent="1">
          <mxGeometry x="855" y="452" width="140" height="50" as="geometry" />
        </mxCell>
        <mxCell id="5vMVcopWDfaQ81VpxTlz-65" value="&lt;p style=&quot;margin: 0px ; margin-top: 4px ; text-align: center&quot;&gt;ArbalesterImpl&amp;nbsp;&lt;/p&gt;&lt;p style=&quot;margin: 0px ; margin-top: 4px ; text-align: center&quot;&gt;implements Hero&lt;/p&gt;" style="verticalAlign=top;align=left;overflow=fill;fontSize=12;fontFamily=Helvetica;html=1;" vertex="1" parent="1">
          <mxGeometry x="776" y="535" width="140" height="50" as="geometry" />
        </mxCell>
        <mxCell id="5vMVcopWDfaQ81VpxTlz-66" value="&lt;p style=&quot;margin: 0px ; margin-top: 4px ; text-align: center&quot;&gt;WarriorImpl&amp;nbsp;&lt;/p&gt;&lt;p style=&quot;margin: 0px ; margin-top: 4px ; text-align: center&quot;&gt;implements Hero&lt;/p&gt;" style="verticalAlign=top;align=left;overflow=fill;fontSize=12;fontFamily=Helvetica;html=1;" vertex="1" parent="1">
          <mxGeometry x="930" y="340" width="140" height="50" as="geometry" />
        </mxCell>
        <mxCell id="5vMVcopWDfaQ81VpxTlz-77" value="&lt;p style=&quot;margin: 0px ; margin-top: 4px ; text-align: center&quot;&gt;ShamanImpl&amp;nbsp;&lt;/p&gt;&lt;p style=&quot;margin: 0px ; margin-top: 4px ; text-align: center&quot;&gt;implements Hero&lt;/p&gt;" style="verticalAlign=top;align=left;overflow=fill;fontSize=12;fontFamily=Helvetica;html=1;" vertex="1" parent="1">
          <mxGeometry x="1035" y="452" width="140" height="50" as="geometry" />
        </mxCell>
        <mxCell id="5vMVcopWDfaQ81VpxTlz-78" value="&lt;p style=&quot;margin: 0px ; margin-top: 4px ; text-align: center&quot;&gt;ArchersterImpl&amp;nbsp;&lt;/p&gt;&lt;p style=&quot;margin: 0px ; margin-top: 4px ; text-align: center&quot;&gt;implements Hero&lt;/p&gt;" style="verticalAlign=top;align=left;overflow=fill;fontSize=12;fontFamily=Helvetica;html=1;" vertex="1" parent="1">
          <mxGeometry x="950" y="540" width="140" height="50" as="geometry" />
        </mxCell>
        <mxCell id="5vMVcopWDfaQ81VpxTlz-79" value="&lt;p style=&quot;margin: 0px ; margin-top: 4px ; text-align: center&quot;&gt;GoblinImpl&amp;nbsp;&lt;/p&gt;&lt;p style=&quot;margin: 0px ; margin-top: 4px ; text-align: center&quot;&gt;implements Hero&lt;/p&gt;" style="verticalAlign=top;align=left;overflow=fill;fontSize=12;fontFamily=Helvetica;html=1;" vertex="1" parent="1">
          <mxGeometry x="1120" y="340" width="140" height="50" as="geometry" />
        </mxCell>
        <mxCell id="5vMVcopWDfaQ81VpxTlz-83" value="&lt;p style=&quot;margin: 0px ; margin-top: 4px ; text-align: center&quot;&gt;NecromacerImpl&amp;nbsp;&lt;/p&gt;&lt;p style=&quot;margin: 0px ; margin-top: 4px ; text-align: center&quot;&gt;implements Hero&lt;/p&gt;" style="verticalAlign=top;align=left;overflow=fill;fontSize=12;fontFamily=Helvetica;html=1;" vertex="1" parent="1">
          <mxGeometry x="1215" y="452" width="140" height="50" as="geometry" />
        </mxCell>
        <mxCell id="5vMVcopWDfaQ81VpxTlz-84" value="&lt;p style=&quot;margin: 0px ; margin-top: 4px ; text-align: center&quot;&gt;HunterImpl&amp;nbsp;&lt;/p&gt;&lt;p style=&quot;margin: 0px ; margin-top: 4px ; text-align: center&quot;&gt;implements Hero&lt;/p&gt;" style="verticalAlign=top;align=left;overflow=fill;fontSize=12;fontFamily=Helvetica;html=1;" vertex="1" parent="1">
          <mxGeometry x="1130" y="540" width="140" height="50" as="geometry" />
        </mxCell>
        <mxCell id="5vMVcopWDfaQ81VpxTlz-85" value="&lt;p style=&quot;margin: 0px ; margin-top: 4px ; text-align: center&quot;&gt;ZombiImpl&amp;nbsp;&lt;/p&gt;&lt;p style=&quot;margin: 0px ; margin-top: 4px ; text-align: center&quot;&gt;implements Hero&lt;/p&gt;" style="verticalAlign=top;align=left;overflow=fill;fontSize=12;fontFamily=Helvetica;html=1;" vertex="1" parent="1">
          <mxGeometry x="1300" y="340" width="140" height="50" as="geometry" />
        </mxCell>
      </root>
    </mxGraphModel>
  </diagram>
</mxfile>
